<svg xmlns="http://www.w3.org/2000/svg" xmlns:xlink="http://www.w3.org/1999/xlink" width="108" zoomAndPan="magnify" viewBox="0 0 81 43.499998" height="58" preserveAspectRatio="xMidYMid meet" version="1.0"><defs><g/></defs><path fill="#ffffff" d="M 18.339844 4.78125 C 16.167969 5.035156 14.09375 5.648438 12.371094 6.53125 C 11.527344 6.964844 10.027344 7.964844 9.316406 8.574219 C 8.066406 9.632812 6.746094 11.160156 5.917969 12.511719 C 4.34375 15.070312 3.597656 17.441406 3.386719 20.566406 C 3.230469 22.917969 3.613281 25.25 4.558594 27.671875 C 4.824219 28.351562 5.476562 29.640625 5.859375 30.253906 C 7.132812 32.273438 8.921875 34.078125 10.8125 35.253906 C 12.613281 36.375 14.496094 37.144531 16.285156 37.496094 C 17.75 37.785156 18.339844 37.847656 19.777344 37.851562 C 21.09375 37.855469 21.355469 37.835938 22.828125 37.605469 C 25.011719 37.265625 27.128906 36.433594 29.03125 35.167969 C 31.167969 33.757812 32.875 31.980469 34.109375 29.90625 C 35.800781 27.058594 36.609375 23.75 36.421875 20.441406 C 36.257812 17.605469 35.335938 14.796875 33.738281 12.300781 C 32.425781 10.234375 30.660156 8.507812 28.535156 7.199219 C 26.449219 5.914062 24.257812 5.152344 21.664062 4.808594 C 20.933594 4.710938 19.050781 4.695312 18.339844 4.78125 Z M 21.664062 6.300781 C 24.980469 6.714844 28.175781 8.300781 30.542969 10.714844 C 32.390625 12.585938 33.511719 14.484375 34.253906 16.972656 C 34.949219 19.289062 35.105469 21.628906 34.710938 23.953125 C 34.300781 26.464844 33.210938 28.894531 31.632812 30.847656 C 31.085938 31.53125 29.757812 32.824219 29.089844 33.324219 C 26.988281 34.914062 24.621094 35.875 21.800781 36.289062 C 21.011719 36.40625 18.890625 36.414062 18.097656 36.3125 C 16.773438 36.132812 15.085938 35.6875 13.992188 35.222656 C 11.984375 34.363281 10.21875 33.15625 8.886719 31.742188 C 8.367188 31.183594 7.480469 30.03125 7.070312 29.363281 C 6.050781 27.707031 5.222656 25.328125 4.996094 23.382812 C 4.714844 20.953125 4.925781 18.804688 5.667969 16.539062 C 6.78125 13.132812 9.128906 10.199219 12.273438 8.292969 C 14.585938 6.890625 17.5 6.121094 20.207031 6.203125 C 20.667969 6.210938 21.328125 6.253906 21.664062 6.300781 Z M 21.664062 6.300781 " fill-opacity="1" fill-rule="nonzero"/><path fill="#ffffff" d="M 13.1875 10.496094 C 13.121094 10.511719 12.953125 10.625 12.816406 10.761719 L 12.5625 11 L 12.046875 11 C 11.195312 11 10.660156 11.210938 10.136719 11.734375 C 9.789062 12.085938 9.496094 12.636719 9.390625 13.105469 C 9.257812 13.765625 9.375 14.390625 9.992188 16.296875 C 10.132812 16.742188 10.335938 17.382812 10.445312 17.71875 C 10.554688 18.054688 10.664062 18.394531 10.695312 18.46875 L 10.746094 18.609375 L 11.183594 18.378906 C 11.429688 18.246094 11.636719 18.117188 11.648438 18.082031 C 11.660156 18.042969 11.417969 17.230469 11.105469 16.265625 C 10.410156 14.128906 10.332031 13.804688 10.417969 13.390625 C 10.542969 12.796875 10.949219 12.300781 11.46875 12.105469 C 11.5625 12.070312 11.84375 12.035156 12.09375 12.035156 L 12.546875 12.03125 L 12.738281 12.25 C 13.136719 12.722656 13.671875 12.808594 14.183594 12.488281 C 14.867188 12.066406 14.832031 11.109375 14.132812 10.632812 C 13.917969 10.484375 13.824219 10.457031 13.589844 10.464844 C 13.4375 10.46875 13.261719 10.484375 13.1875 10.496094 Z M 13.1875 10.496094 " fill-opacity="1" fill-rule="nonzero"/><path fill="#ffffff" d="M 16.667969 10.5625 C 15.839844 10.9375 15.832031 12.136719 16.65625 12.550781 C 16.804688 12.625 17.019531 12.683594 17.136719 12.683594 C 17.421875 12.683594 17.808594 12.488281 18 12.246094 L 18.167969 12.03125 L 18.640625 12.03125 C 19.054688 12.03125 19.144531 12.054688 19.441406 12.195312 C 19.804688 12.386719 20.058594 12.640625 20.226562 13.007812 C 20.316406 13.203125 20.34375 13.351562 20.335938 13.6875 C 20.324219 14.070312 20.277344 14.277344 19.9375 15.34375 C 19.082031 17.992188 19.058594 18.078125 19.164062 18.160156 C 19.292969 18.257812 19.996094 18.613281 20.019531 18.59375 C 20.03125 18.574219 20.441406 17.300781 20.933594 15.710938 C 21.304688 14.53125 21.398438 14.121094 21.398438 13.699219 C 21.398438 12.664062 20.835938 11.707031 19.960938 11.277344 C 19.574219 11.082031 19.152344 11.007812 18.535156 11 C 18.15625 11 18.132812 10.992188 17.925781 10.804688 C 17.53125 10.449219 17.09375 10.367188 16.667969 10.5625 Z M 16.667969 10.5625 " fill-opacity="1" fill-rule="nonzero"/><path fill="#ffffff" d="M 26.910156 10.617188 C 26.449219 10.683594 26.15625 10.777344 25.773438 10.980469 C 24.609375 11.585938 23.914062 12.839844 24.007812 14.144531 C 24.117188 15.722656 25.195312 16.941406 26.734375 17.246094 C 27.222656 17.34375 27.933594 17.292969 28.382812 17.121094 L 28.753906 16.984375 L 28.875 17.1875 C 28.941406 17.296875 29.109375 17.59375 29.246094 17.851562 L 29.503906 18.320312 L 29.503906 23.207031 C 29.503906 27.285156 29.488281 28.140625 29.421875 28.460938 C 29.238281 29.351562 28.59375 30.214844 27.859375 30.578125 C 27.070312 30.964844 27.261719 30.945312 22.855469 30.984375 L 18.882812 31.019531 L 17.398438 31.320312 C 15.65625 31.679688 15.347656 31.71875 14.804688 31.644531 C 14.234375 31.5625 13.90625 31.453125 13.511719 31.21875 C 12.390625 30.53125 11.828125 29.214844 12.167969 28.046875 C 12.390625 27.304688 12.824219 26.917969 13.824219 26.585938 C 14.878906 26.234375 15.300781 25.957031 15.714844 25.332031 C 16.042969 24.839844 16.148438 24.429688 16.191406 23.484375 L 16.222656 22.675781 L 16.363281 22.644531 C 16.847656 22.535156 17.152344 22.445312 17.375 22.347656 C 18.050781 22.058594 18.820312 21.371094 19.191406 20.738281 C 19.378906 20.410156 19.746094 19.539062 19.714844 19.503906 C 19.667969 19.457031 18.628906 18.925781 18.617188 18.9375 C 18.605469 18.949219 18.484375 19.1875 18.335938 19.46875 C 17.976562 20.167969 17.425781 20.738281 16.855469 21.011719 C 16.347656 21.25 16.011719 21.316406 15.382812 21.316406 C 13.976562 21.3125 13.027344 20.695312 12.347656 19.324219 L 12.152344 18.929688 L 11.585938 19.210938 C 11.273438 19.371094 11.019531 19.523438 11.019531 19.554688 C 11.019531 19.578125 11.128906 19.84375 11.25 20.128906 C 11.878906 21.519531 12.980469 22.398438 14.398438 22.644531 L 14.769531 22.710938 L 14.75 23.382812 C 14.726562 24.570312 14.472656 24.886719 13.261719 25.257812 C 12.390625 25.523438 11.855469 25.875 11.363281 26.503906 C 10.894531 27.117188 10.652344 27.777344 10.601562 28.574219 C 10.472656 30.65625 12.054688 32.617188 14.195312 33.03125 C 15.132812 33.210938 16.152344 33.109375 18.480469 32.617188 L 19.261719 32.449219 L 23.097656 32.417969 C 27.285156 32.390625 27.417969 32.378906 28.195312 32.066406 C 29.4375 31.574219 30.417969 30.453125 30.832031 29.058594 C 30.925781 28.757812 30.9375 28.320312 30.960938 23.246094 L 30.988281 17.761719 L 30.515625 16.828125 C 30.226562 16.265625 30.0625 15.882812 30.097656 15.859375 C 30.132812 15.839844 30.21875 15.699219 30.300781 15.546875 C 30.6875 14.773438 30.785156 14 30.59375 13.238281 C 30.410156 12.503906 30.195312 12.121094 29.699219 11.625 C 28.898438 10.828125 27.921875 10.476562 26.910156 10.617188 Z M 27.765625 11.742188 C 27.882812 11.769531 27.882812 11.789062 27.882812 12.609375 L 27.882812 13.441406 L 28.738281 13.457031 L 29.582031 13.472656 L 29.601562 13.960938 C 29.613281 14.375 29.601562 14.460938 29.523438 14.515625 C 29.453125 14.566406 29.195312 14.582031 28.65625 14.582031 L 27.886719 14.582031 L 27.871094 15.386719 L 27.855469 16.1875 L 26.828125 16.1875 L 26.800781 15.375 L 26.773438 14.558594 L 25.9375 14.53125 L 25.097656 14.503906 L 25.082031 14.097656 C 25.054688 13.394531 24.992188 13.445312 25.964844 13.445312 L 26.800781 13.445312 L 26.800781 12.609375 C 26.800781 11.851562 26.808594 11.765625 26.898438 11.746094 C 27.039062 11.707031 27.621094 11.707031 27.765625 11.742188 Z M 27.765625 11.742188 " fill-opacity="1" fill-rule="nonzero"/><path fill="#ffffff" d="M 26.625 18.859375 L 25.558594 18.875 L 25.570312 23.933594 L 25.582031 28.988281 L 26.800781 28.980469 L 28.019531 28.980469 L 28.03125 23.898438 L 28.042969 18.820312 L 27.871094 18.832031 C 27.777344 18.84375 27.210938 18.851562 26.625 18.859375 Z M 26.625 18.859375 " fill-opacity="1" fill-rule="nonzero"/><path fill="#ffffff" d="M 21.9375 25.1875 L 21.9375 29.003906 L 24.367188 29.003906 L 24.367188 25.683594 C 24.367188 23.859375 24.382812 22.144531 24.402344 21.871094 L 24.4375 21.375 L 21.9375 21.375 Z M 21.9375 25.1875 " fill-opacity="1" fill-rule="nonzero"/><path fill="#ffffff" d="M 18.261719 26.464844 L 18.261719 29.003906 L 20.691406 29.003906 L 20.695312 28.378906 C 20.695312 28.035156 20.703125 26.890625 20.707031 25.84375 L 20.71875 23.925781 L 18.261719 23.925781 Z M 18.261719 26.464844 " fill-opacity="1" fill-rule="nonzero"/><path fill="#ffffff" d="M 14.585938 28.363281 L 14.585938 29.003906 L 15.816406 29 L 17.042969 28.988281 L 17.054688 28.359375 L 17.0625 27.726562 L 14.585938 27.726562 Z M 14.585938 28.363281 " fill-opacity="1" fill-rule="nonzero"/><g fill="#ffffff" fill-opacity="1"><g transform="translate(43.106599, 18.626786)"><g><path d="M 6.75 -2.953125 C 6.3125 -3.703125 5.671875 -4.140625 4.890625 -4.3125 C 6.421875 -4.4375 7.5 -5.1875 7.5 -6.609375 C 7.5 -8 6.3125 -8.9375 4.5625 -8.9375 L 0.484375 -8.9375 L 0.484375 -8.890625 C 0.515625 -8.734375 0.8125 -7.8125 0.8125 -6.96875 L 0.8125 -1.953125 C 0.8125 -1.109375 0.515625 -0.203125 0.484375 -0.046875 L 0.484375 0 L 3.0625 0 L 3.0625 -0.046875 C 3.046875 -0.203125 2.734375 -1.109375 2.734375 -1.953125 L 2.734375 -4.125 L 3.25 -4.125 C 3.796875 -4 4.484375 -3.46875 4.96875 -2.28125 C 5.34375 -1.421875 5.828125 -0.3125 6.171875 0 L 8.484375 0 L 8.484375 -0.046875 C 7.703125 -0.78125 7.4375 -1.6875 6.75 -2.953125 Z M 2.734375 -8.46875 L 3.90625 -8.46875 C 4.90625 -8.46875 5.4375 -7.6875 5.4375 -6.515625 C 5.4375 -5.28125 4.875 -4.640625 3.875 -4.640625 L 2.734375 -4.640625 Z M 3 -4.15625 C 2.96875 -4.140625 2.921875 -4.140625 2.875 -4.140625 C 2.921875 -4.15625 2.953125 -4.15625 3 -4.15625 Z M 3 -4.15625 "/></g></g></g><g fill="#ffffff" fill-opacity="1"><g transform="translate(51.615065, 18.626786)"><g><path d="M 6.953125 -2.0625 L 6.890625 -2.0625 C 6.6875 -1.921875 5.515625 -0.515625 4.453125 -0.515625 L 2.734375 -0.515625 L 2.734375 -4.34375 L 3.453125 -4.34375 C 4.484375 -4.34375 5.625 -3.796875 5.8125 -3.75 L 5.875 -3.75 L 5.875 -5.390625 L 5.8125 -5.390625 C 5.625 -5.34375 4.484375 -4.796875 3.453125 -4.796875 L 2.734375 -4.796875 L 2.734375 -8.40625 L 4.421875 -8.40625 C 5.484375 -8.40625 6.65625 -7.015625 6.84375 -6.875 L 6.90625 -6.875 L 6.90625 -8.9375 L 0.484375 -8.9375 L 0.484375 -8.890625 C 0.515625 -8.734375 0.8125 -7.8125 0.8125 -6.96875 L 0.8125 -1.953125 C 0.8125 -1.109375 0.515625 -0.203125 0.484375 -0.046875 L 0.484375 0 L 6.953125 0 L 6.9375 -0.515625 Z M 6.953125 -2.0625 "/></g></g></g><g fill="#ffffff" fill-opacity="1"><g transform="translate(58.994867, 18.626786)"><g><path d="M 6.546875 -2.359375 C 6.359375 -2.25 5.203125 -0.515625 4.125 -0.515625 L 2.734375 -0.515625 L 2.734375 -6.96875 C 2.734375 -7.8125 3.046875 -8.734375 3.0625 -8.890625 L 3.0625 -8.9375 L 0.484375 -8.9375 L 0.484375 -8.890625 C 0.515625 -8.734375 0.8125 -7.8125 0.8125 -6.96875 L 0.8125 -1.953125 C 0.8125 -1.109375 0.515625 -0.203125 0.484375 -0.046875 L 0.484375 0 L 6.609375 0 L 6.609375 -2.359375 Z M 6.546875 -2.359375 "/></g></g></g><g fill="#ffffff" fill-opacity="1"><g transform="translate(65.841333, 18.626786)"><g><path d="M 7.625 -2.03125 L 5.03125 -8.9375 L 2.765625 -8.9375 L 2.765625 -8.890625 C 2.8125 -8.765625 3.140625 -8.0625 2.921875 -7.421875 L 1.171875 -2.609375 C 0.78125 -1.484375 0.328125 -0.5 0.078125 -0.03125 L 0.078125 0 L 1.828125 0 L 1.828125 -0.0625 C 1.765625 -0.265625 1.359375 -1.390625 1.734375 -2.421875 L 1.953125 -3.03125 L 5.171875 -3.03125 L 5.546875 -2.046875 C 5.875 -1.171875 5.65625 -0.21875 5.609375 -0.046875 L 5.609375 0 L 8.578125 0 L 8.578125 -0.03125 C 8.25 -0.53125 7.9375 -1.171875 7.625 -2.03125 Z M 2.140625 -3.578125 L 3.515625 -7.4375 L 4.96875 -3.578125 Z M 2.140625 -3.578125 "/></g></g></g><g fill="#ffffff" fill-opacity="1"><g transform="translate(40.035814, 31.089678)"><g><path d="M 7.921875 -8.9375 L 0.140625 -8.9375 L 0.140625 -6.421875 L 0.1875 -6.421875 C 0.375 -6.53125 1.53125 -8.375 2.578125 -8.375 L 3.078125 -8.375 L 3.078125 -1.953125 C 3.078125 -1.109375 2.78125 -0.203125 2.75 -0.046875 L 2.75 0 L 5.328125 0 L 5.328125 -0.046875 C 5.296875 -0.203125 5 -1.109375 5 -1.953125 L 5 -8.375 L 5.46875 -8.375 C 6.53125 -8.375 7.6875 -6.53125 7.859375 -6.421875 L 7.921875 -6.421875 Z M 7.921875 -8.9375 "/></g></g></g><g fill="#ffffff" fill-opacity="1"><g transform="translate(48.097779, 31.089678)"><g><path d="M 0.578125 0 L 3.15625 0 L 3.15625 -0.046875 C 3.125 -0.203125 2.828125 -1.109375 2.828125 -1.953125 L 2.828125 -6.96875 C 2.828125 -7.8125 3.125 -8.734375 3.15625 -8.890625 L 3.15625 -8.9375 L 0.578125 -8.9375 L 0.578125 -8.890625 C 0.609375 -8.734375 0.90625 -7.8125 0.90625 -6.96875 L 0.90625 -1.953125 C 0.90625 -1.109375 0.609375 -0.203125 0.578125 -0.046875 Z M 0.578125 0 "/></g></g></g><g fill="#ffffff" fill-opacity="1"><g transform="translate(51.831082, 31.089678)"><g><path d="M 4.578125 0.140625 C 6.9375 0.140625 8.828125 -1.75 8.828125 -4.484375 C 8.828125 -7.203125 6.9375 -9.0625 4.578125 -9.0625 C 2.203125 -9.0625 0.328125 -7.21875 0.328125 -4.484375 C 0.328125 -1.75 2.203125 0.140625 4.578125 0.140625 Z M 4.578125 -0.390625 C 3.171875 -0.390625 2.484375 -2.671875 2.484375 -4.46875 C 2.484375 -6.25 3.171875 -8.53125 4.578125 -8.53125 C 5.984375 -8.53125 6.671875 -6.28125 6.671875 -4.5 C 6.671875 -2.703125 5.984375 -0.390625 4.578125 -0.390625 Z M 4.578125 -0.390625 "/></g></g></g><g fill="#ffffff" fill-opacity="1"><g transform="translate(60.984514, 31.089678)"><g><path d="M 8.515625 -8.9375 L 6.6875 -8.9375 L 6.6875 -8.875 C 6.734375 -8.640625 7.3125 -7.328125 7.3125 -6.109375 L 7.3125 -2.453125 L 2.921875 -8.9375 L 0.578125 -8.9375 L 0.578125 -8.890625 C 0.625 -8.703125 1.109375 -7.71875 1.109375 -6.796875 L 1.109375 -2.8125 C 1.109375 -1.59375 0.53125 -0.296875 0.46875 -0.0625 L 0.46875 0 L 2.3125 0 L 2.3125 -0.0625 C 2.265625 -0.296875 1.671875 -1.59375 1.671875 -2.8125 L 1.671875 -7.3125 L 6.65625 0 L 7.890625 0 L 7.890625 -6.109375 C 7.890625 -7.328125 8.46875 -8.640625 8.515625 -8.875 Z M 8.515625 -8.9375 "/></g></g></g><g fill="#ffffff" fill-opacity="1"><g transform="translate(69.951901, 31.089678)"><g><path d="M 3.828125 0.15625 C 5.578125 0.15625 7.203125 -0.703125 7.203125 -2.53125 C 7.203125 -3.515625 6.6875 -4.609375 4.671875 -5.4375 C 3.296875 -5.984375 2.09375 -6.421875 2.09375 -7.328125 C 2.09375 -7.9375 2.625 -8.5 3.46875 -8.5 C 4.671875 -8.5 5.9375 -7.15625 6.78125 -6.34375 L 6.828125 -6.34375 L 6.828125 -8.359375 C 6.078125 -8.65625 4.90625 -9.0625 3.75 -9.0625 C 1.546875 -9.0625 0.390625 -7.75 0.390625 -6.40625 C 0.390625 -5.03125 1.546875 -4.28125 3.0625 -3.75 C 4.421875 -3.25 5.453125 -2.765625 5.453125 -1.71875 C 5.453125 -0.875 4.78125 -0.4375 4.03125 -0.4375 C 2.734375 -0.4375 1.5 -1.78125 0.609375 -2.703125 L 0.515625 -2.703125 L 0.515625 -0.625 C 1.75 -0.125 2.921875 0.15625 3.828125 0.15625 Z M 3.828125 0.15625 "/></g></g></g></svg>