<svg xmlns="http://www.w3.org/2000/svg" xmlns:xlink="http://www.w3.org/1999/xlink" width="108" zoomAndPan="magnify" viewBox="0 0 81 43.499998" height="58" preserveAspectRatio="xMidYMid meet" version="1.0"><defs><g/></defs><path fill="#5271ff" d="M 18.410156 4.734375 C 16.230469 4.988281 14.152344 5.597656 12.429688 6.480469 C 11.582031 6.914062 10.078125 7.910156 9.367188 8.515625 C 8.113281 9.574219 6.792969 11.097656 5.957031 12.445312 C 4.382812 14.996094 3.636719 17.359375 3.421875 20.476562 C 3.265625 22.820312 3.652344 25.148438 4.597656 27.566406 C 4.863281 28.242188 5.519531 29.527344 5.902344 30.140625 C 7.175781 32.152344 8.96875 33.953125 10.863281 35.125 C 12.667969 36.242188 14.558594 37.011719 16.351562 37.363281 C 17.816406 37.652344 18.410156 37.710938 19.847656 37.714844 C 21.164062 37.722656 21.429688 37.699219 22.90625 37.472656 C 25.09375 37.132812 27.214844 36.300781 29.121094 35.039062 C 31.261719 33.632812 32.972656 31.859375 34.207031 29.792969 C 35.902344 26.953125 36.714844 23.652344 36.527344 20.351562 C 36.363281 17.527344 35.4375 14.722656 33.839844 12.238281 C 32.519531 10.175781 30.753906 8.453125 28.625 7.144531 C 26.53125 5.863281 24.335938 5.105469 21.738281 4.761719 C 21.007812 4.664062 19.117188 4.648438 18.410156 4.734375 Z M 21.738281 6.25 C 25.0625 6.664062 28.261719 8.246094 30.632812 10.652344 C 32.484375 12.519531 33.609375 14.414062 34.355469 16.894531 C 35.046875 19.203125 35.207031 21.535156 34.8125 23.855469 C 34.398438 26.359375 33.308594 28.785156 31.726562 30.734375 C 31.179688 31.414062 29.847656 32.703125 29.179688 33.203125 C 27.074219 34.785156 24.703125 35.746094 21.875 36.15625 C 21.085938 36.277344 18.957031 36.285156 18.164062 36.183594 C 16.839844 36.003906 15.148438 35.558594 14.050781 35.097656 C 12.039062 34.238281 10.269531 33.035156 8.9375 31.621094 C 8.414062 31.066406 7.527344 29.914062 7.117188 29.25 C 6.09375 27.597656 5.265625 25.226562 5.035156 23.285156 C 4.757812 20.863281 4.964844 18.722656 5.707031 16.460938 C 6.824219 13.066406 9.179688 10.136719 12.328125 8.234375 C 14.648438 6.839844 17.5625 6.074219 20.28125 6.152344 C 20.738281 6.164062 21.398438 6.203125 21.738281 6.25 Z M 21.738281 6.25 " fill-opacity="1" fill-rule="nonzero"/><path fill="#5271ff" d="M 13.246094 10.4375 C 13.179688 10.449219 13.011719 10.5625 12.871094 10.703125 L 12.617188 10.9375 L 12.101562 10.9375 C 11.246094 10.9375 10.714844 11.144531 10.1875 11.667969 C 9.839844 12.019531 9.542969 12.570312 9.441406 13.035156 C 9.304688 13.695312 9.425781 14.316406 10.042969 16.21875 C 10.183594 16.664062 10.390625 17.300781 10.496094 17.636719 C 10.605469 17.972656 10.71875 18.308594 10.746094 18.382812 L 10.800781 18.527344 L 11.238281 18.296875 C 11.484375 18.164062 11.6875 18.035156 11.703125 18 C 11.714844 17.960938 11.472656 17.152344 11.160156 16.1875 C 10.464844 14.058594 10.382812 13.734375 10.472656 13.320312 C 10.59375 12.730469 11 12.234375 11.519531 12.039062 C 11.617188 12.003906 11.898438 11.972656 12.148438 11.972656 L 12.605469 11.96875 L 12.792969 12.183594 C 13.195312 12.65625 13.726562 12.742188 14.242188 12.421875 C 14.925781 12 14.894531 11.046875 14.191406 10.570312 C 13.976562 10.425781 13.882812 10.394531 13.648438 10.402344 C 13.496094 10.40625 13.316406 10.425781 13.246094 10.4375 Z M 13.246094 10.4375 " fill-opacity="1" fill-rule="nonzero"/><path fill="#5271ff" d="M 16.730469 10.5 C 15.902344 10.875 15.894531 12.070312 16.71875 12.484375 C 16.871094 12.558594 17.085938 12.617188 17.203125 12.617188 C 17.488281 12.617188 17.875 12.421875 18.070312 12.179688 L 18.238281 11.96875 L 18.707031 11.96875 C 19.125 11.96875 19.214844 11.988281 19.511719 12.128906 C 19.875 12.320312 20.128906 12.574219 20.296875 12.9375 C 20.386719 13.132812 20.414062 13.28125 20.40625 13.617188 C 20.394531 14 20.347656 14.203125 20.007812 15.269531 C 19.152344 17.910156 19.128906 17.996094 19.234375 18.078125 C 19.359375 18.175781 20.066406 18.53125 20.089844 18.511719 C 20.105469 18.492188 20.511719 17.21875 21.007812 15.636719 C 21.378906 14.457031 21.472656 14.050781 21.472656 13.628906 C 21.472656 12.59375 20.90625 11.640625 20.03125 11.214844 C 19.644531 11.019531 19.222656 10.945312 18.601562 10.9375 C 18.226562 10.9375 18.199219 10.929688 17.992188 10.742188 C 17.597656 10.386719 17.15625 10.304688 16.730469 10.5 Z M 16.730469 10.5 " fill-opacity="1" fill-rule="nonzero"/><path fill="#5271ff" d="M 26.996094 10.554688 C 26.53125 10.621094 26.242188 10.714844 25.855469 10.917969 C 24.691406 11.523438 23.992188 12.769531 24.085938 14.074219 C 24.199219 15.648438 25.277344 16.863281 26.820312 17.167969 C 27.308594 17.265625 28.019531 17.210938 28.472656 17.042969 L 28.839844 16.90625 L 28.964844 17.105469 C 29.03125 17.214844 29.199219 17.515625 29.335938 17.773438 L 29.59375 18.238281 L 29.59375 23.109375 C 29.59375 27.175781 29.578125 28.03125 29.511719 28.351562 C 29.328125 29.238281 28.683594 30.101562 27.949219 30.464844 C 27.15625 30.847656 27.347656 30.832031 22.933594 30.867188 L 18.949219 30.902344 L 17.464844 31.203125 C 15.71875 31.5625 15.410156 31.601562 14.863281 31.523438 C 14.292969 31.441406 13.964844 31.335938 13.570312 31.101562 C 12.445312 30.414062 11.882812 29.105469 12.222656 27.9375 C 12.445312 27.195312 12.878906 26.8125 13.882812 26.484375 C 14.9375 26.132812 15.359375 25.855469 15.777344 25.230469 C 16.109375 24.738281 16.210938 24.332031 16.253906 23.386719 L 16.285156 22.582031 L 16.429688 22.550781 C 16.910156 22.441406 17.21875 22.351562 17.441406 22.253906 C 18.117188 21.964844 18.890625 21.28125 19.261719 20.648438 C 19.449219 20.324219 19.816406 19.453125 19.785156 19.417969 C 19.738281 19.371094 18.695312 18.839844 18.683594 18.855469 C 18.671875 18.867188 18.550781 19.101562 18.40625 19.382812 C 18.042969 20.082031 17.492188 20.648438 16.921875 20.921875 C 16.410156 21.160156 16.074219 21.226562 15.441406 21.226562 C 14.035156 21.222656 13.085938 20.605469 12.402344 19.238281 L 12.207031 18.84375 L 11.640625 19.128906 C 11.328125 19.285156 11.074219 19.4375 11.074219 19.46875 C 11.074219 19.492188 11.179688 19.753906 11.304688 20.042969 C 11.929688 21.429688 13.039062 22.304688 14.457031 22.550781 L 14.828125 22.617188 L 14.8125 23.285156 C 14.785156 24.46875 14.53125 24.785156 13.316406 25.15625 C 12.445312 25.421875 11.910156 25.773438 11.417969 26.398438 C 10.945312 27.007812 10.703125 27.671875 10.652344 28.464844 C 10.523438 30.539062 12.109375 32.496094 14.253906 32.90625 C 15.191406 33.085938 16.214844 32.984375 18.546875 32.496094 L 19.332031 32.328125 L 23.175781 32.296875 C 27.367188 32.269531 27.503906 32.257812 28.285156 31.945312 C 29.527344 31.453125 30.511719 30.335938 30.925781 28.949219 C 31.019531 28.648438 31.03125 28.210938 31.054688 23.152344 L 31.082031 17.683594 L 30.609375 16.75 C 30.320312 16.1875 30.15625 15.808594 30.1875 15.785156 C 30.222656 15.761719 30.308594 15.625 30.390625 15.472656 C 30.78125 14.703125 30.875 13.929688 30.6875 13.171875 C 30.503906 12.4375 30.285156 12.054688 29.789062 11.558594 C 28.988281 10.765625 28.007812 10.414062 26.996094 10.554688 Z M 27.851562 11.675781 C 27.96875 11.707031 27.96875 11.726562 27.96875 12.542969 L 27.96875 13.371094 L 28.824219 13.386719 L 29.671875 13.402344 L 29.691406 13.890625 C 29.703125 14.300781 29.691406 14.386719 29.613281 14.445312 C 29.542969 14.492188 29.285156 14.511719 28.742188 14.511719 L 27.972656 14.511719 L 27.960938 15.308594 L 27.941406 16.109375 L 26.914062 16.109375 L 26.886719 15.300781 L 26.855469 14.484375 L 26.019531 14.457031 L 25.179688 14.433594 L 25.160156 14.027344 C 25.136719 13.328125 25.070312 13.375 26.046875 13.375 L 26.886719 13.375 L 26.886719 12.542969 C 26.886719 11.789062 26.894531 11.703125 26.984375 11.679688 C 27.121094 11.640625 27.710938 11.640625 27.851562 11.675781 Z M 27.851562 11.675781 " fill-opacity="1" fill-rule="nonzero"/><path fill="#5271ff" d="M 26.707031 18.777344 L 25.640625 18.792969 L 25.652344 23.835938 L 25.664062 28.875 L 26.886719 28.871094 L 28.105469 28.871094 L 28.121094 23.800781 L 28.132812 18.734375 L 27.960938 18.746094 C 27.863281 18.757812 27.296875 18.769531 26.707031 18.777344 Z M 26.707031 18.777344 " fill-opacity="1" fill-rule="nonzero"/><path fill="#5271ff" d="M 22.011719 25.085938 L 22.011719 28.890625 L 24.449219 28.890625 L 24.449219 25.582031 C 24.449219 23.761719 24.464844 22.050781 24.480469 21.78125 L 24.519531 21.28125 L 22.011719 21.28125 Z M 22.011719 25.085938 " fill-opacity="1" fill-rule="nonzero"/><path fill="#5271ff" d="M 18.328125 26.359375 L 18.328125 28.890625 L 20.765625 28.890625 L 20.769531 28.269531 C 20.769531 27.929688 20.777344 26.785156 20.78125 25.738281 L 20.792969 23.828125 L 18.328125 23.828125 Z M 18.328125 26.359375 " fill-opacity="1" fill-rule="nonzero"/><path fill="#5271ff" d="M 14.648438 28.253906 L 14.648438 28.890625 L 15.878906 28.886719 L 17.109375 28.875 L 17.121094 28.25 L 17.128906 27.617188 L 14.648438 27.617188 Z M 14.648438 28.253906 " fill-opacity="1" fill-rule="nonzero"/><g fill="#5271ff" fill-opacity="1"><g transform="translate(43.106599, 18.626786)"><g><path d="M 6.75 -2.953125 C 6.3125 -3.703125 5.671875 -4.140625 4.890625 -4.3125 C 6.421875 -4.4375 7.5 -5.1875 7.5 -6.609375 C 7.5 -8 6.3125 -8.9375 4.5625 -8.9375 L 0.484375 -8.9375 L 0.484375 -8.890625 C 0.515625 -8.734375 0.8125 -7.8125 0.8125 -6.96875 L 0.8125 -1.953125 C 0.8125 -1.109375 0.515625 -0.203125 0.484375 -0.046875 L 0.484375 0 L 3.0625 0 L 3.0625 -0.046875 C 3.046875 -0.203125 2.734375 -1.109375 2.734375 -1.953125 L 2.734375 -4.125 L 3.25 -4.125 C 3.796875 -4 4.484375 -3.46875 4.96875 -2.28125 C 5.34375 -1.421875 5.828125 -0.3125 6.171875 0 L 8.484375 0 L 8.484375 -0.046875 C 7.703125 -0.78125 7.4375 -1.6875 6.75 -2.953125 Z M 2.734375 -8.46875 L 3.90625 -8.46875 C 4.90625 -8.46875 5.4375 -7.6875 5.4375 -6.515625 C 5.4375 -5.28125 4.875 -4.640625 3.875 -4.640625 L 2.734375 -4.640625 Z M 3 -4.15625 C 2.96875 -4.140625 2.921875 -4.140625 2.875 -4.140625 C 2.921875 -4.15625 2.953125 -4.15625 3 -4.15625 Z M 3 -4.15625 "/></g></g></g><g fill="#5271ff" fill-opacity="1"><g transform="translate(51.615065, 18.626786)"><g><path d="M 6.953125 -2.0625 L 6.890625 -2.0625 C 6.6875 -1.921875 5.515625 -0.515625 4.453125 -0.515625 L 2.734375 -0.515625 L 2.734375 -4.34375 L 3.453125 -4.34375 C 4.484375 -4.34375 5.625 -3.796875 5.8125 -3.75 L 5.875 -3.75 L 5.875 -5.390625 L 5.8125 -5.390625 C 5.625 -5.34375 4.484375 -4.796875 3.453125 -4.796875 L 2.734375 -4.796875 L 2.734375 -8.40625 L 4.421875 -8.40625 C 5.484375 -8.40625 6.65625 -7.015625 6.84375 -6.875 L 6.90625 -6.875 L 6.90625 -8.9375 L 0.484375 -8.9375 L 0.484375 -8.890625 C 0.515625 -8.734375 0.8125 -7.8125 0.8125 -6.96875 L 0.8125 -1.953125 C 0.8125 -1.109375 0.515625 -0.203125 0.484375 -0.046875 L 0.484375 0 L 6.953125 0 L 6.9375 -0.515625 Z M 6.953125 -2.0625 "/></g></g></g><g fill="#5271ff" fill-opacity="1"><g transform="translate(58.994867, 18.626786)"><g><path d="M 6.546875 -2.359375 C 6.359375 -2.25 5.203125 -0.515625 4.125 -0.515625 L 2.734375 -0.515625 L 2.734375 -6.96875 C 2.734375 -7.8125 3.046875 -8.734375 3.0625 -8.890625 L 3.0625 -8.9375 L 0.484375 -8.9375 L 0.484375 -8.890625 C 0.515625 -8.734375 0.8125 -7.8125 0.8125 -6.96875 L 0.8125 -1.953125 C 0.8125 -1.109375 0.515625 -0.203125 0.484375 -0.046875 L 0.484375 0 L 6.609375 0 L 6.609375 -2.359375 Z M 6.546875 -2.359375 "/></g></g></g><g fill="#5271ff" fill-opacity="1"><g transform="translate(65.841333, 18.626786)"><g><path d="M 7.625 -2.03125 L 5.03125 -8.9375 L 2.765625 -8.9375 L 2.765625 -8.890625 C 2.8125 -8.765625 3.140625 -8.0625 2.921875 -7.421875 L 1.171875 -2.609375 C 0.78125 -1.484375 0.328125 -0.5 0.078125 -0.03125 L 0.078125 0 L 1.828125 0 L 1.828125 -0.0625 C 1.765625 -0.265625 1.359375 -1.390625 1.734375 -2.421875 L 1.953125 -3.03125 L 5.171875 -3.03125 L 5.546875 -2.046875 C 5.875 -1.171875 5.65625 -0.21875 5.609375 -0.046875 L 5.609375 0 L 8.578125 0 L 8.578125 -0.03125 C 8.25 -0.53125 7.9375 -1.171875 7.625 -2.03125 Z M 2.140625 -3.578125 L 3.515625 -7.4375 L 4.96875 -3.578125 Z M 2.140625 -3.578125 "/></g></g></g><g fill="#5271ff" fill-opacity="1"><g transform="translate(40.035814, 31.089678)"><g><path d="M 7.921875 -8.9375 L 0.140625 -8.9375 L 0.140625 -6.421875 L 0.1875 -6.421875 C 0.375 -6.53125 1.53125 -8.375 2.578125 -8.375 L 3.078125 -8.375 L 3.078125 -1.953125 C 3.078125 -1.109375 2.78125 -0.203125 2.75 -0.046875 L 2.75 0 L 5.328125 0 L 5.328125 -0.046875 C 5.296875 -0.203125 5 -1.109375 5 -1.953125 L 5 -8.375 L 5.46875 -8.375 C 6.53125 -8.375 7.6875 -6.53125 7.859375 -6.421875 L 7.921875 -6.421875 Z M 7.921875 -8.9375 "/></g></g></g><g fill="#5271ff" fill-opacity="1"><g transform="translate(48.097779, 31.089678)"><g><path d="M 0.578125 0 L 3.15625 0 L 3.15625 -0.046875 C 3.125 -0.203125 2.828125 -1.109375 2.828125 -1.953125 L 2.828125 -6.96875 C 2.828125 -7.8125 3.125 -8.734375 3.15625 -8.890625 L 3.15625 -8.9375 L 0.578125 -8.9375 L 0.578125 -8.890625 C 0.609375 -8.734375 0.90625 -7.8125 0.90625 -6.96875 L 0.90625 -1.953125 C 0.90625 -1.109375 0.609375 -0.203125 0.578125 -0.046875 Z M 0.578125 0 "/></g></g></g><g fill="#5271ff" fill-opacity="1"><g transform="translate(51.831082, 31.089678)"><g><path d="M 4.578125 0.140625 C 6.9375 0.140625 8.828125 -1.75 8.828125 -4.484375 C 8.828125 -7.203125 6.9375 -9.0625 4.578125 -9.0625 C 2.203125 -9.0625 0.328125 -7.21875 0.328125 -4.484375 C 0.328125 -1.75 2.203125 0.140625 4.578125 0.140625 Z M 4.578125 -0.390625 C 3.171875 -0.390625 2.484375 -2.671875 2.484375 -4.46875 C 2.484375 -6.25 3.171875 -8.53125 4.578125 -8.53125 C 5.984375 -8.53125 6.671875 -6.28125 6.671875 -4.5 C 6.671875 -2.703125 5.984375 -0.390625 4.578125 -0.390625 Z M 4.578125 -0.390625 "/></g></g></g><g fill="#5271ff" fill-opacity="1"><g transform="translate(60.984514, 31.089678)"><g><path d="M 8.515625 -8.9375 L 6.6875 -8.9375 L 6.6875 -8.875 C 6.734375 -8.640625 7.3125 -7.328125 7.3125 -6.109375 L 7.3125 -2.453125 L 2.921875 -8.9375 L 0.578125 -8.9375 L 0.578125 -8.890625 C 0.625 -8.703125 1.109375 -7.71875 1.109375 -6.796875 L 1.109375 -2.8125 C 1.109375 -1.59375 0.53125 -0.296875 0.46875 -0.0625 L 0.46875 0 L 2.3125 0 L 2.3125 -0.0625 C 2.265625 -0.296875 1.671875 -1.59375 1.671875 -2.8125 L 1.671875 -7.3125 L 6.65625 0 L 7.890625 0 L 7.890625 -6.109375 C 7.890625 -7.328125 8.46875 -8.640625 8.515625 -8.875 Z M 8.515625 -8.9375 "/></g></g></g><g fill="#5271ff" fill-opacity="1"><g transform="translate(69.951901, 31.089678)"><g><path d="M 3.828125 0.15625 C 5.578125 0.15625 7.203125 -0.703125 7.203125 -2.53125 C 7.203125 -3.515625 6.6875 -4.609375 4.671875 -5.4375 C 3.296875 -5.984375 2.09375 -6.421875 2.09375 -7.328125 C 2.09375 -7.9375 2.625 -8.5 3.46875 -8.5 C 4.671875 -8.5 5.9375 -7.15625 6.78125 -6.34375 L 6.828125 -6.34375 L 6.828125 -8.359375 C 6.078125 -8.65625 4.90625 -9.0625 3.75 -9.0625 C 1.546875 -9.0625 0.390625 -7.75 0.390625 -6.40625 C 0.390625 -5.03125 1.546875 -4.28125 3.0625 -3.75 C 4.421875 -3.25 5.453125 -2.765625 5.453125 -1.71875 C 5.453125 -0.875 4.78125 -0.4375 4.03125 -0.4375 C 2.734375 -0.4375 1.5 -1.78125 0.609375 -2.703125 L 0.515625 -2.703125 L 0.515625 -0.625 C 1.75 -0.125 2.921875 0.15625 3.828125 0.15625 Z M 3.828125 0.15625 "/></g></g></g></svg>